<svg width="600.0" height="400.0" viewBox="0 0 600.0 400.0" xmlns="http://www.w3.org/2000/svg">
  <rect x="85.16129032258067" y="40.0" width="118.4516129032258" height="300.0" fill="#F44336" />
<rect x="216.7741935483871" y="70.0" width="118.4516129032258" height="270.0" fill="#F44336" />
<rect x="348.38709677419354" y="88.00000000000001" width="118.4516129032258" height="252.0" fill="#F44336" />
  <g class="axis axis-bottom">
  <line x1="72.0" y1="340.0" x2="480.0" y2="340.0" stroke="black" />
  <g transform="translate(144.38709677419357, 340.0)">
  <line y2="6" stroke="black" />
  <text y="20" text-anchor="middle" font-size="10">11/06/2024</text>
</g>
<g transform="translate(276.0, 340.0)">
  <line y2="6" stroke="black" />
  <text y="20" text-anchor="middle" font-size="10">12/06/2024</text>
</g>
<g transform="translate(407.61290322580646, 340.0)">
  <line y2="6" stroke="black" />
  <text y="20" text-anchor="middle" font-size="10">13/06/2024</text>
</g>
</g>
<g class="axis axis-left">
  <line x1="72.0" y1="40.0" x2="72.0" y2="340.0" stroke="black" />
  <g transform="translate(72.0, 340.0)">
  <line x2="-6" stroke="black" />
  <text x="-10" y="4" text-anchor="end" font-size="10">0 CDF</text>
</g>
<g transform="translate(72.0, 310.0)">
  <line x2="-6" stroke="black" />
  <text x="-10" y="4" text-anchor="end" font-size="10">10 CDF</text>
</g>
<g transform="translate(72.0, 280.0)">
  <line x2="-6" stroke="black" />
  <text x="-10" y="4" text-anchor="end" font-size="10">20 CDF</text>
</g>
<g transform="translate(72.0, 249.99999999999997)">
  <line x2="-6" stroke="black" />
  <text x="-10" y="4" text-anchor="end" font-size="10">30 CDF</text>
</g>
<g transform="translate(72.0, 220.0)">
  <line x2="-6" stroke="black" />
  <text x="-10" y="4" text-anchor="end" font-size="10">40 CDF</text>
</g>
<g transform="translate(72.0, 190.0)">
  <line x2="-6" stroke="black" />
  <text x="-10" y="4" text-anchor="end" font-size="10">50 CDF</text>
</g>
<g transform="translate(72.0, 160.0)">
  <line x2="-6" stroke="black" />
  <text x="-10" y="4" text-anchor="end" font-size="10">60 CDF</text>
</g>
<g transform="translate(72.0, 130.0)">
  <line x2="-6" stroke="black" />
  <text x="-10" y="4" text-anchor="end" font-size="10">70 CDF</text>
</g>
<g transform="translate(72.0, 99.99999999999999)">
  <line x2="-6" stroke="black" />
  <text x="-10" y="4" text-anchor="end" font-size="10">80 CDF</text>
</g>
<g transform="translate(72.0, 70.0)">
  <line x2="-6" stroke="black" />
  <text x="-10" y="4" text-anchor="end" font-size="10">90 CDF</text>
</g>
<g transform="translate(72.0, 40.0)">
  <line x2="-6" stroke="black" />
  <text x="-10" y="4" text-anchor="end" font-size="10">100 CDF</text>
</g>
</g>
  <g class="legend"><g transform="translate(490.0, 40.0)">
  <rect width="12" height="12" fill="#F44336" />
  <text x="18" y="10" font-family="sans-serif" font-size="12">Value</text>
</g></g>
</svg>