<svg width="600.0" height="400.0" viewBox="0 0 600.0 400.0" xmlns="http://www.w3.org/2000/svg">
  <rect x="85.16129032258067" y="272.3076923076923" width="118.4516129032258" height="67.69230769230768" fill="#4CAF50" />
<rect x="216.7741935483871" y="147.69230769230768" width="118.4516129032258" height="192.30769230769232" fill="#4CAF50" />
<rect x="348.38709677419354" y="40.0" width="118.4516129032258" height="300.0" fill="#4CAF50" />
  <g class="axis axis-bottom">
  <line x1="72.0" y1="340.0" x2="480.0" y2="340.0" stroke="black" />
  <g transform="translate(144.38709677419357, 340.0)">
  <line y2="6" stroke="black" />
  <text y="20" text-anchor="middle" font-size="10">13/06/2024</text>
</g>
<g transform="translate(276.0, 340.0)">
  <line y2="6" stroke="black" />
  <text y="20" text-anchor="middle" font-size="10">14/06/2024</text>
</g>
<g transform="translate(407.61290322580646, 340.0)">
  <line y2="6" stroke="black" />
  <text y="20" text-anchor="middle" font-size="10">15/06/2024</text>
</g>
</g>
<g class="axis axis-left">
  <line x1="72.0" y1="40.0" x2="72.0" y2="340.0" stroke="black" />
  <g transform="translate(72.0, 340.0)">
  <line x2="-6" stroke="black" />
  <text x="-10" y="4" text-anchor="end" font-size="10">0 CDF</text>
</g>
<g transform="translate(72.0, 301.53846153846155)">
  <line x2="-6" stroke="black" />
  <text x="-10" y="4" text-anchor="end" font-size="10">50 CDF</text>
</g>
<g transform="translate(72.0, 263.0769230769231)">
  <line x2="-6" stroke="black" />
  <text x="-10" y="4" text-anchor="end" font-size="10">100 CDF</text>
</g>
<g transform="translate(72.0, 224.61538461538464)">
  <line x2="-6" stroke="black" />
  <text x="-10" y="4" text-anchor="end" font-size="10">150 CDF</text>
</g>
<g transform="translate(72.0, 186.1538461538462)">
  <line x2="-6" stroke="black" />
  <text x="-10" y="4" text-anchor="end" font-size="10">200 CDF</text>
</g>
<g transform="translate(72.0, 147.69230769230768)">
  <line x2="-6" stroke="black" />
  <text x="-10" y="4" text-anchor="end" font-size="10">250 CDF</text>
</g>
<g transform="translate(72.0, 109.23076923076923)">
  <line x2="-6" stroke="black" />
  <text x="-10" y="4" text-anchor="end" font-size="10">300 CDF</text>
</g>
<g transform="translate(72.0, 70.76923076923076)">
  <line x2="-6" stroke="black" />
  <text x="-10" y="4" text-anchor="end" font-size="10">350 CDF</text>
</g>
</g>
  <g class="legend"><g transform="translate(490.0, 40.0)">
  <rect width="12" height="12" fill="#4CAF50" />
  <text x="18" y="10" font-family="sans-serif" font-size="12">Value</text>
</g></g>
</svg>