<svg width="600.0" height="400.0" viewBox="0 0 600.0 400.0" xmlns="http://www.w3.org/2000/svg">
  <g transform="translate(300.0, 200.0)">
    <path d="M-26.534,147.635A150,150,0,0,1,-146.783,30.897L-0,0Z" fill="#2196F3" />
<text x="-78.36199076958717" y="80.71956641748726" fill="#333" font-family="sans-serif" font-size="14" font-weight="bold" text-anchor="middle" alignment-baseline="middle">19%</text>
<path d="M0,-150.0A150,150,0,0,1,142.099,48.04L0,0Z" fill="#4CAF50" />
<text x="91.40477377563914" y="-65.58519140037811" fill="#333" font-family="sans-serif" font-size="14" font-weight="bold" text-anchor="middle" alignment-baseline="middle">30%</text>
<path d="M-97.923,-113.627A150,150,0,0,1,-0,-150.0L-0,-0Z" fill="#FFC107" />
<text x="-39.1726839863699" y="-105.45971187758859" fill="#333" font-family="sans-serif" font-size="14" font-weight="bold" text-anchor="middle" alignment-baseline="middle">11%</text>
<path d="M142.099,48.04A150,150,0,0,1,-26.534,147.635L-0,0Z" fill="#F44336" />
<text x="57.20975084803733" y="96.86740632382748" fill="#333" font-family="sans-serif" font-size="14" font-weight="bold" text-anchor="middle" alignment-baseline="middle">23%</text>
<path d="M-146.783,30.897A150,150,0,0,1,-97.923,-113.627L-0,-0Z" fill="#9C27B0" />
<text x="-106.57421480859652" y="-36.03035855956925" fill="#333" font-family="sans-serif" font-size="14" font-weight="bold" text-anchor="middle" alignment-baseline="middle">17%</text>
    <g class="legend"><g transform="translate(170.0, -150.0)">
  <rect width="12" height="12" fill="#2196F3" />
  <text x="18" y="10" font-family="sans-serif" font-size="12">Apples</text>
</g>
<g transform="translate(170.0, -130.0)">
  <rect width="12" height="12" fill="#4CAF50" />
  <text x="18" y="10" font-family="sans-serif" font-size="12">Bananas</text>
</g>
<g transform="translate(170.0, -110.0)">
  <rect width="12" height="12" fill="#FFC107" />
  <text x="18" y="10" font-family="sans-serif" font-size="12">Cherries</text>
</g>
<g transform="translate(170.0, -90.0)">
  <rect width="12" height="12" fill="#F44336" />
  <text x="18" y="10" font-family="sans-serif" font-size="12">Dates</text>
</g>
<g transform="translate(170.0, -70.0)">
  <rect width="12" height="12" fill="#9C27B0" />
  <text x="18" y="10" font-family="sans-serif" font-size="12">Elderberries</text>
</g></g>
  </g>
</svg>